<?xml version="1.0" standalone="no"?>
<!DOCTYPE svg PUBLIC "-//W3C//DTD SVG 20010904//EN"
 "http://www.w3.org/TR/2001/REC-SVG-20010904/DTD/svg10.dtd">
<svg version="1.0" xmlns="http://www.w3.org/2000/svg"
 width="723.000000pt" height="912.000000pt" viewBox="0 0 723.000000 912.000000"
 preserveAspectRatio="xMidYMid meet">

<g transform="translate(0.000000,912.000000) scale(0.100000,-0.100000)"
fill="#000000" stroke="none">
<path d="M600 8375 c-7 -8 -10 -21 -7 -29 16 -40 599 -332 1047 -523 697 -297
1429 -546 2365 -803 460 -127 1086 -265 1560 -344 165 -28 204 -31 220 -21 24
15 31 48 13 62 -7 6 -501 165 -1098 353 -597 188 -1490 476 -1985 640 -1426
472 -2064 680 -2091 680 -6 0 -17 -7 -24 -15z"/>
<path d="M6725 6844 c-181 -118 -346 -224 -367 -235 -41 -24 -39 -20 -62 -199
-71 -550 -100 -1277 -100 -2470 0 -1026 19 -1711 69 -2515 15 -240 44 -639 48
-663 2 -9 721 437 749 466 23 23 109 1073 138 1672 62 1314 20 2781 -115 4008
-8 74 -15 138 -15 143 0 5 -3 9 -7 8 -5 0 -156 -97 -338 -215z"/>
<path d="M1250 1908 l0 -415 23 -34 c30 -45 106 -95 176 -117 79 -24 256 -23
331 2 81 27 147 72 175 121 25 41 25 43 25 301 l0 259 -77 29 c-43 16 -202 81
-353 144 -151 62 -281 116 -287 119 -10 4 -13 -82 -13 -409z"/>
<path d="M4632 662 l3 -470 30 -43 c66 -93 246 -152 404 -130 97 13 179 44
229 87 73 62 72 57 72 473 l0 371 -22 4 c-42 10 -683 166 -701 172 -17 5 -17
-18 -15 -464z"/>
</g>
</svg>
